<svg width="67" height="95" viewBox="0 0 67 95" fill="none" xmlns="http://www.w3.org/2000/svg">
<path d="M15.7664 0H25.9252V4.24822H20.0147V8.49644H25.9252V12.7447H15.7664V0ZM27.957 0H38.1158V3.69411H32.2052V4.43293H38.1158V12.9294H27.957V9.05056H33.8676V8.31174H27.957V0ZM40.1475 0H50.3063V3.69411H44.3958V4.43293H50.3063V12.9294H40.1475V9.05056H46.0581V8.31174H40.1475V0ZM0 18.585L6.09897 86.974L33.4612 94.5691L60.8973 86.963L67 18.585H0ZM52.9661 49.5417L52.7629 51.7951L50.7903 73.8784L50.6647 75.297L33.4982 80.055L33.4612 80.0661L16.2799 75.297L15.1052 62.1275H23.5241L24.1225 68.8175L33.4649 71.3406H33.4723L42.8258 68.8138L43.801 57.9347H14.7284L13.9785 49.5453H44.5251L45.2897 40.9566H13.2286L12.4676 32.5672H54.4807L52.9661 49.5453V49.5417Z" fill="#212429"/>
</svg>
