<svg width="67" height="94" viewBox="0 0 67 94" fill="none" xmlns="http://www.w3.org/2000/svg">
<path d="M6.23377 0H10.4967V4.18534H14.3957V0H18.6586V12.6762H14.3957V8.43194H10.4967V12.6762H6.23377V0ZM24.2631 4.20419H20.511V0H32.2805V4.20419H28.526V12.6762H24.2631V4.20419ZM34.1483 0H38.5925L41.3266 4.45392L44.0583 0H48.5049V12.6762H44.2598V6.39287L41.3278 10.8998H41.2543L38.3199 6.39287V12.6762H34.1494V0H34.1483ZM50.6263 0H54.8904V8.48613H60.8847V12.6762H50.6263V0ZM0 18.473L6.09748 86.4492L33.4585 93.9988L60.8954 86.4386L66.9988 18.4718H0V18.473ZM54.2824 34.6054L53.8996 38.8319L53.7313 40.7061H21.6345L22.4013 49.2429H52.9681L52.7631 51.4822L50.7922 73.4314L50.6666 74.8402L33.5 79.5686L33.4609 79.5804L16.2789 74.8402L15.1044 61.7494H23.5248L24.1221 68.3991L33.4633 70.9058L33.4704 70.9035L42.8258 68.3932L43.7999 57.5806H14.7299L12.6678 34.6054L12.4675 32.3684H33.5H54.4827L54.2824 34.6054Z" fill="#212429"/>
</svg>
