<svg width="67" height="94" viewBox="0 0 67 94" fill="none" xmlns="http://www.w3.org/2000/svg">
<path d="M33.5 18.4203H0L6.27917 86.3069L33.5 94L60.7125 86.3069L67 18.4203H33.5ZM50.6409 74.7424L33.5 79.592L16.3591 74.7424L15.1532 61.7437H23.6197L24.1769 68.2513L33.5 70.929L42.6817 68.2928L43.6215 57.5407H14.8205L14.7706 57.6982L17.1243 32.2812H51.0235L52.8864 45.5866H44.3451L44.029 40.7203H24.0022L23.6113 49.2259H52.9862L50.6243 74.7424H50.6409ZM26.9796 0H31.2462V12.6754H21.0165V8.41432H26.9713V0H26.9796ZM45.9752 4.50145H41.8251L45.9752 8.55525V12.6008H35.5875V8.55525C35.5875 8.55525 38.54 8.55525 39.7126 8.55525C37.7 6.54908 36.9764 5.88588 35.5875 4.50145V0.0663198H45.9752V4.50145Z" fill="#212429"/>
</svg>
