<svg width="25" height="25" viewBox="0 0 25 25" fill="none" xmlns="http://www.w3.org/2000/svg">
<path fill-rule="evenodd" clip-rule="evenodd" d="M24.5 24.5H19.5688V16.101C19.5688 13.7982 18.6938 12.5113 16.8711 12.5113C14.8883 12.5113 13.8523 13.8505 13.8523 16.101V24.5H9.1V8.5H13.8523V10.6552C13.8523 10.6552 15.2813 8.01118 18.6766 8.01118C22.0703 8.01118 24.5 10.0836 24.5 14.3698V24.5ZM3.43047 6.40493C1.81172 6.40493 0.5 5.08292 0.5 3.45246C0.5 1.82201 1.81172 0.5 3.43047 0.5C5.04922 0.5 6.36016 1.82201 6.36016 3.45246C6.36016 5.08292 5.04922 6.40493 3.43047 6.40493ZM0.976562 24.5H5.93203V8.5H0.976562V24.5Z" fill="#212429"/>
</svg>
