<svg width="120" height="82" viewBox="0 0 120 82" fill="none" xmlns="http://www.w3.org/2000/svg">
<path d="M116.119 37.5366C115.791 37.5125 115.411 37.4964 115.027 37.4964C113.09 37.4964 111.237 37.8587 109.533 38.5191L109.637 38.4828C109.137 38.6842 108.336 38.6842 108.268 39.3243C108.545 39.5901 108.585 40.029 108.817 40.3994C109.285 41.1966 109.861 41.8731 110.533 42.4367L110.545 42.4488C111.245 43.0004 111.946 43.5359 112.682 44.007C113.982 44.8123 115.459 45.2915 116.731 46.1008C117.455 46.5718 118.195 47.1718 118.932 47.6751C119.296 47.9247 119.532 48.3797 120 48.5407V48.4401C119.772 48.1381 119.7 47.6992 119.476 47.365C119.14 47.0268 118.808 46.7248 118.476 46.3947C117.483 45.0861 116.335 43.9668 115.047 43.0326L114.998 43.0004C113.93 42.2676 111.589 41.2409 111.149 40.0048L111.085 39.9323C111.958 39.8075 112.734 39.6223 113.482 39.3727L113.386 39.4009C114.522 39.0989 115.563 39.1633 116.735 38.8694C117.263 38.7325 117.799 38.5674 118.336 38.3983V38.0963C117.735 37.4923 117.287 36.671 116.667 36.1073C115.031 34.6578 113.226 33.2969 111.325 32.0728L111.145 31.9641C110.097 31.2917 108.765 30.8569 107.66 30.2851C107.26 30.0838 106.592 29.9831 106.36 29.6449C105.84 28.9 105.38 28.0464 105.016 27.1445L104.983 27.056C104.002 25.1394 103.09 23.1893 102.247 21.2056C101.671 19.6635 101.098 18.3992 100.454 17.1752L100.546 17.3644C97.4012 12.0536 93.0199 7.78568 87.7903 4.8746L87.6183 4.78602C86.3819 4.16998 84.9455 3.69084 83.437 3.42108L83.337 3.40497C82.5007 3.36471 81.6685 3.30431 80.8363 3.26807C80.2521 2.88959 79.7479 2.50306 79.2758 2.07626L79.2878 2.08834C77.3872 0.880428 72.4697 -1.73672 71.0693 1.72597C70.1691 3.90827 72.4057 6.06239 73.178 7.16964C73.7941 7.90647 74.3543 8.73188 74.8384 9.6056L74.8785 9.68613C75.1145 10.27 75.1786 10.8699 75.4146 11.4779C75.9948 13.2978 76.583 14.7916 77.2512 16.2371L77.1471 15.9874C77.5433 16.7887 77.9554 17.4691 78.4155 18.1134L78.3835 18.065C78.6516 18.4314 79.1117 18.6046 79.2198 19.2085C78.8757 19.9373 78.6076 20.7828 78.4595 21.6646L78.4515 21.721C78.0194 23.0578 77.7673 24.5999 77.7673 26.1983C77.7673 28.6987 78.3795 31.0542 79.4598 33.1237L79.4198 33.0432C79.956 33.8766 81.2284 35.7288 82.9329 35.0201C84.4333 34.4162 84.1012 32.5037 84.5334 30.8206C84.6334 30.418 84.5694 30.1522 84.7734 29.8785V29.955C85.2416 30.9012 85.7137 31.8031 86.1418 32.7493C87.3502 34.5007 88.7866 35.9905 90.4271 37.2186L90.4791 37.2548C91.2794 37.8587 91.9156 38.9056 92.9159 39.276V39.1754H92.8399C92.6118 38.9257 92.3597 38.7043 92.0836 38.515L92.0676 38.507C91.4474 37.895 90.8713 37.2347 90.3511 36.5381L90.3191 36.4938C89.0147 34.7222 87.7743 32.7171 86.698 30.6113L86.582 30.3656C86.0338 29.3107 85.5737 28.1713 85.1335 27.1284C84.9335 26.7258 84.9335 26.1218 84.5974 25.9205C84.0052 26.5889 83.473 27.3338 83.0289 28.135L82.9969 28.1994C82.4847 29.7013 82.1486 31.4367 82.0606 33.2365V33.2807C81.9246 33.317 81.9926 33.2807 81.9246 33.3532C80.8563 33.0915 80.4881 31.9762 80.088 31.038C79.5439 29.5644 79.2278 27.8572 79.2278 26.0816C79.2278 24.6482 79.4318 23.2631 79.8159 21.9545L79.7919 22.0592C80.028 21.3546 81.0283 19.132 80.6282 18.4556C80.4201 17.8154 79.7599 17.449 79.3918 16.9296C78.9557 16.3095 78.5556 15.6049 78.2235 14.86L78.1915 14.7795C77.3912 12.8992 76.9911 10.8135 76.1228 8.9332C75.5987 7.95076 75.0465 7.10522 74.4263 6.31605L74.4543 6.35229C73.7941 5.58325 73.186 4.72563 72.6578 3.81566L72.6138 3.73513C72.4497 3.36873 72.2137 2.76075 72.4777 2.35811C72.5258 2.12458 72.7098 1.94339 72.9459 1.90716C73.386 1.54478 74.6264 2.01587 75.0585 2.21719C76.3269 2.70035 77.4192 3.26807 78.4315 3.93645L78.3675 3.89619C78.8356 4.22635 79.3438 4.86655 79.944 5.03163H80.6442C81.7125 5.26919 82.9209 5.10411 83.9212 5.39803C85.7577 6.02212 87.3462 6.80324 88.8146 7.76152L88.7306 7.70918C93.1479 10.58 96.685 14.4614 99.0777 19.0475L99.1578 19.2126C99.5579 19.9856 99.7339 20.6983 100.098 21.5036C100.798 23.1624 101.662 24.8414 102.375 26.4439C103.051 28.1672 103.851 29.657 104.803 31.03L104.755 30.9575C105.256 31.6621 107.264 32.0285 108.164 32.3949C109.113 32.7291 109.873 33.0472 110.609 33.4056L110.461 33.3411C111.609 34.0458 112.73 34.851 113.81 35.6241C114.358 36.0066 116.027 36.8481 116.127 37.5246L116.119 37.5366ZM69.2088 66.9816C69.2088 67.042 69.2128 67.1104 69.2128 67.1789C69.2128 69.4256 68.2165 71.4348 66.64 72.7876L66.628 72.7957C64.8995 74.213 62.6708 75.0746 60.2421 75.0746C60.054 75.0746 59.866 75.0706 59.6819 75.0585H59.7059C56.749 75.0182 54.0282 74.0519 51.7995 72.4373L51.8396 72.4655L53.0239 70.0698C54.7404 71.0362 56.781 71.6361 58.9497 71.7206H58.9737C59.0817 71.7287 59.2058 71.7327 59.3338 71.7327C60.6622 71.7327 61.8986 71.314 62.9109 70.6013L62.8909 70.6134C63.8071 69.9128 64.3913 68.8176 64.3913 67.5855C64.3913 67.5614 64.3913 67.5413 64.3913 67.5171V67.5211C64.3913 65.8623 63.243 64.453 61.1503 63.2693C59.2098 62.1982 55.3366 59.9636 55.3366 59.9636C53.424 58.7718 52.1716 56.674 52.1716 54.2824C52.1716 54.1978 52.1716 54.1133 52.1757 54.0287V54.0408C52.1716 53.9643 52.1716 53.8757 52.1716 53.7871C52.1716 51.7135 53.0799 49.8533 54.5164 48.5891L54.5244 48.581C56.0528 47.2765 58.0494 46.4833 60.2301 46.4833C60.3701 46.4833 60.5061 46.4873 60.6422 46.4913H60.6222C60.6582 46.4913 60.7022 46.4913 60.7462 46.4913C63.303 46.4913 65.6837 47.2604 67.6683 48.585L67.6203 48.5568L66.556 50.9526C64.9915 50.2439 63.1669 49.8171 61.2464 49.797H61.2384C61.1423 49.7889 61.0343 49.7849 60.9223 49.7849C59.8019 49.7849 58.7696 50.1795 57.9614 50.8398L57.9694 50.8318C57.2132 51.4639 56.733 52.4101 56.729 53.469C56.729 55.1199 57.8974 56.5371 60.058 57.7451C62.0226 58.8282 65.9918 61.1151 65.9918 61.1151C67.9444 62.2707 69.2368 64.3725 69.2368 66.7803C69.2368 66.8527 69.2368 66.9292 69.2328 67.0017V66.9896L69.2088 66.9816ZM77.4993 69.1196C76.4069 66.9252 75.7707 64.3403 75.7707 61.6064C75.7707 61.1755 75.7867 60.7487 75.8187 60.33L75.8147 60.3864C75.8147 53.3778 77.9314 49.8721 82.1646 49.8694C82.2687 49.8614 82.3927 49.8574 82.5208 49.8574C84.4213 49.8574 86.0898 50.8559 87.0381 52.3618L87.0501 52.3819C88.1344 54.5642 88.7706 57.1411 88.7706 59.8629C88.7706 60.2817 88.7546 60.6964 88.7266 61.1071L88.7306 61.0507C88.7306 68.1157 86.614 71.6509 82.3807 71.6562C82.2727 71.6643 82.1486 71.6683 82.0246 71.6683C80.124 71.6683 78.4515 70.6698 77.5033 69.1639L77.4912 69.1438L77.4993 69.1196ZM93.9602 75.3685L88.8787 72.8521C89.3428 72.4615 89.7589 72.0508 90.143 71.6079L90.1551 71.5958C92.2077 68.8096 93.44 65.3026 93.44 61.5097C93.44 61.0709 93.424 60.636 93.392 60.2052L93.396 60.2616C93.396 51.0546 89.8043 46.4484 82.6208 46.443C82.4607 46.4349 82.2727 46.4309 82.0846 46.4309C79.0157 46.4309 76.2589 47.7878 74.3823 49.9419L74.3743 49.954C72.3297 52.7403 71.1013 56.2432 71.1013 60.0361C71.1013 60.4629 71.1173 60.8856 71.1493 61.3044L71.1453 61.248C71.1093 61.6547 71.0893 62.1298 71.0893 62.6089C71.0893 66.128 72.1857 69.3894 74.0502 72.0669L74.0142 72.0146C75.8107 73.9392 78.3595 75.139 81.1804 75.139C81.4444 75.139 81.7045 75.127 81.9606 75.1068L81.9246 75.1109C81.9606 75.1109 82.0086 75.1109 82.0526 75.1109C83.297 75.1109 84.5014 74.9297 85.6417 74.5955L85.5537 74.6196L92.1796 78.5051L93.9802 75.3766L93.9602 75.3685ZM110.557 74.6881H97.4052V46.8658H101.831V71.2697H110.557V74.6881ZM48.9347 54.1616C47.7863 62.5526 45.1575 70.1262 41.3124 76.9107L41.4724 76.6006C39.932 79.5842 37.0191 81.6618 33.5981 81.996L33.5581 82C32.5218 81.9436 31.5575 81.694 30.6812 81.2873L30.7292 81.3075V78.8232C31.2774 78.9077 31.9096 78.9561 32.5538 78.9561C32.5898 78.9561 32.6258 78.9561 32.6658 78.9561C32.7298 78.9601 32.7978 78.9601 32.8699 78.9601C34.0262 78.9601 35.0865 78.5373 35.9028 77.8327L35.8948 77.8367C36.775 77.1079 37.3392 76.0208 37.3712 74.7968C37.1591 73.0332 36.755 71.4227 36.1749 69.9047L36.2229 70.0416L31.1533 54.1616H35.7027L39.3398 66.0354C39.988 67.7104 40.3641 69.6511 40.3641 71.6764C40.3641 71.6804 40.3641 71.6844 40.3641 71.6844C42.2927 66.6031 43.7571 60.6763 44.5013 54.528L44.5374 54.1576L48.9347 54.1616ZM28.8487 74.6881H24.2153C24.0846 67.2768 23.6351 59.8804 22.8669 52.4987H22.8268L15.7767 74.6881H12.2517L5.24957 52.4987H5.20156C4.65473 59.8831 4.3293 67.2795 4.22527 74.6881H0C0.274749 64.7966 0.95762 55.5212 2.04861 46.8617H7.79834L14.4723 67.3118H14.5124L21.2464 46.8617H26.72C27.931 57.0002 28.6446 66.2756 28.8607 74.6881H28.8487ZM82.0246 8.30508C82.0166 8.30508 82.0046 8.30508 81.9926 8.30508C81.5165 8.30508 81.0563 8.36548 80.6162 8.47822L80.6562 8.47016V8.53458H80.7242C81.0683 9.04996 81.4204 9.49689 81.8005 9.91564L81.7925 9.90758C82.0606 10.4471 82.2927 10.9826 82.5608 11.5181L82.6288 11.4416C83.0649 11.0954 83.341 10.5639 83.341 9.96798C83.341 9.8955 83.337 9.82706 83.329 9.75458V9.76263C83.1289 9.52508 83.1009 9.29155 82.9289 9.05801C82.7288 8.7198 82.3007 8.55472 82.0286 8.28898L82.0246 8.30508Z" fill="#212429"/>
</svg>
