<svg width="120" height="74" viewBox="0 0 120 74" fill="none" xmlns="http://www.w3.org/2000/svg">
<path fill-rule="evenodd" clip-rule="evenodd" d="M65.9679 61.6536C65.9679 60.9434 65.6963 60.4244 62.1433 60.069C59.1864 59.7684 57.3424 59.1129 57.3424 56.7364C57.3424 54.5235 59.1869 53.2125 62.2793 53.2125C65.7511 53.2125 67.46 54.4145 67.6773 57.0365C67.6773 57.1188 67.6499 57.2006 67.5961 57.2825C67.5417 57.3372 67.4605 57.3919 67.3788 57.3919H65.9683C65.8328 57.3919 65.6972 57.2825 65.6698 57.1459C65.3444 55.6437 64.5036 55.1519 62.2793 55.1519C59.7839 55.1519 59.4854 56.0262 59.4854 56.6817C59.4854 57.4742 59.8382 57.7196 63.2013 58.1568C66.5375 58.5939 68.1114 59.2223 68.1114 61.5713C68.084 63.9754 66.1313 65.3411 62.686 65.3411C57.9394 65.3411 56.9626 63.1558 56.9626 61.2982C56.9626 61.1341 57.0981 60.9705 57.288 60.9705H58.6985C58.8609 60.9705 58.997 61.0799 58.997 61.2435C59.2143 62.691 59.8378 63.4012 62.7129 63.4012C64.9915 63.4012 65.9683 62.8822 65.9683 61.6531L65.9679 61.6536ZM71.311 50.8635L60.4882 44.5536C59.8104 44.1711 58.8879 44.1711 58.2096 44.5536L47.3867 50.8635C46.6815 51.2731 46.2474 52.038 46.2474 52.8576V65.4505C46.2474 66.2701 46.6815 67.035 47.3867 67.4446L50.235 69.0833C51.6185 69.7664 52.1069 69.7664 52.7304 69.7664C54.7648 69.7664 55.931 68.5096 55.931 66.3519V53.9227C55.931 53.7315 55.7685 53.5949 55.6055 53.5949H54.222C54.0321 53.5949 53.8966 53.7591 53.8966 53.9227V66.3519C53.8966 67.308 52.8928 68.2642 51.2925 67.4446L48.3356 65.7235C48.227 65.6688 48.1727 65.5323 48.1727 65.4229V52.83C48.1727 52.7206 48.227 52.5841 48.3356 52.5294L59.1585 46.2465C59.2397 46.1918 59.3753 46.1918 59.484 46.2465L70.3068 52.5294C70.4155 52.5841 70.4698 52.693 70.4698 52.83V65.4229C70.4698 65.5594 70.4155 65.6688 70.3068 65.7235L59.484 72.0335C59.4027 72.0882 59.2671 72.0882 59.1585 72.0335L56.3915 70.3672C56.3103 70.3125 56.2016 70.2854 56.1204 70.3401C55.3608 70.7767 55.2253 70.8314 54.4931 71.0774C54.3302 71.1321 54.0591 71.241 54.6018 71.5416L58.2091 73.6994C58.5619 73.8906 58.9417 74 59.3484 74C59.7282 74 60.1348 73.9182 60.4877 73.7541L71.3106 67.4441C72.0158 67.0345 72.4499 66.2696 72.4499 65.45V52.8571C72.4499 52.0375 72.0158 51.2726 71.3106 50.8631L71.311 50.8635ZM25.7688 24.7488C25.7688 24.2574 25.4977 23.7927 25.0636 23.5467L13.5625 16.8814C13.3726 16.772 13.1553 16.7173 12.9385 16.6902H12.8299C12.6131 16.6902 12.3958 16.772 12.2059 16.8814L0.705212 23.5467C0.271125 23.7927 0 24.2569 0 24.7488L0.0274009 42.6684C0.0274009 42.9143 0.162963 43.1598 0.379767 43.2697C0.597051 43.4062 0.867695 43.4062 1.05806 43.2697L7.89338 39.3362C8.32746 39.0903 8.59859 38.626 8.59859 38.1342V29.7478C8.59859 29.2564 8.86971 28.7917 9.3038 28.5457L12.2059 26.8518C12.4232 26.7153 12.6669 26.6606 12.9111 26.6606C13.1553 26.6606 13.399 26.7153 13.5894 26.8518L16.4915 28.5457C16.9256 28.7917 17.1967 29.2559 17.1967 29.7478V38.1342C17.1967 38.6255 17.4678 39.0903 17.9019 39.3362L24.7372 43.2697C24.9545 43.4062 25.2252 43.4062 25.4424 43.2697C25.6597 43.1603 25.7953 42.9143 25.7953 42.6684L25.7679 24.7488H25.7688ZM88.6173 5.16287V38.4619C88.6173 38.9538 88.3462 39.418 87.9121 39.664L76.411 46.3564C75.9822 46.6023 75.4563 46.6023 75.0275 46.3564L63.5263 39.664C63.0922 39.418 62.8211 38.9533 62.8211 38.4619V25.1041C62.8211 24.6128 63.0922 24.148 63.5263 23.9021L75.0275 17.2096C75.4563 16.9637 75.9822 16.9637 76.411 17.2096L79.2861 18.876C79.4486 18.9578 79.6116 18.9578 79.7741 18.876C79.937 18.7666 80.0183 18.6029 80.0183 18.4388V0.682847C80.0183 0.436916 80.1538 0.218579 80.3706 0.0820579C80.5605 -0.0273526 80.8321 -0.0273526 81.0489 0.0820579L87.9112 3.9337C88.3453 4.17963 88.6164 4.6439 88.6164 5.16287H88.6173ZM79.9918 29.4748C79.9918 29.3653 79.9375 29.2288 79.8289 29.1741L75.8956 26.8794C75.7841 26.8247 75.6543 26.8247 75.5428 26.8794L71.6096 29.1741C71.5009 29.2288 71.4466 29.3378 71.4466 29.4748V34.0642C71.4466 34.1736 71.5009 34.3101 71.6096 34.3648L75.5428 36.6595C75.6543 36.7142 75.7841 36.7142 75.8956 36.6595L79.8289 34.3648C79.9375 34.3101 79.9918 34.2012 79.9918 34.0642V29.4748ZM119.323 23.7109L107.903 17.0455C107.474 16.7996 106.949 16.7996 106.52 17.0455L95.0186 23.738C94.5845 23.9839 94.3134 24.4482 94.3134 24.94V38.2978C94.3134 38.7892 94.5845 39.2539 95.0186 39.4999L106.438 46.0558C106.872 46.3017 107.387 46.3017 107.794 46.0558L114.711 42.177C114.928 42.0676 115.064 41.8217 115.064 41.5758C115.064 41.3298 114.928 41.0844 114.711 40.9745L103.156 34.282C102.939 34.1455 102.803 33.9272 102.803 33.6813V29.5019C102.803 29.2559 102.939 29.0105 103.156 28.9006L106.763 26.8247C106.979 26.6882 107.253 26.6882 107.469 26.8247L111.076 28.9006C111.293 29.0371 111.429 29.2555 111.429 29.5019V32.7798C111.429 33.0258 111.564 33.2712 111.781 33.3806C111.998 33.5171 112.269 33.5171 112.486 33.3806L119.322 29.3649C119.756 29.1189 120 28.6547 120 28.1628V24.9124C120 24.4211 119.729 23.9563 119.322 23.7104L119.323 23.7109ZM107.306 28.737C107.224 28.6823 107.117 28.6823 107.035 28.737L104.838 30.0208C104.756 30.0751 104.702 30.1574 104.702 30.2668V32.8345C104.702 32.9439 104.756 33.0258 104.838 33.0805L107.035 34.3643C107.117 34.419 107.224 34.419 107.306 34.3643L109.504 33.0805C109.585 33.0258 109.639 32.9439 109.639 32.8345V30.2668C109.639 30.1574 109.585 30.0755 109.504 30.0208L107.306 28.737ZM56.4742 39.4447C56.9083 39.1987 57.1794 38.7345 57.1794 38.2426V24.9391C57.1794 24.9124 57.178 24.8858 57.1765 24.8592C57.176 24.8485 57.1746 24.8379 57.1736 24.8272C57.1722 24.8127 57.1707 24.7982 57.1688 24.7832C57.1669 24.7691 57.1655 24.7551 57.163 24.7411C57.1626 24.7372 57.1616 24.7333 57.1611 24.7294C57.1544 24.6902 57.1457 24.6515 57.1357 24.6128C57.1352 24.6108 57.1347 24.6094 57.1342 24.6074C57.1289 24.5871 57.1227 24.5673 57.1164 24.5474C57.1155 24.545 57.1145 24.5421 57.114 24.5397C57.1034 24.5077 57.0914 24.4762 57.0784 24.4448C57.0746 24.4356 57.0708 24.4259 57.0669 24.4167C57.0631 24.408 57.0592 24.3993 57.0549 24.391C56.9847 24.2385 56.8881 24.0982 56.7732 23.9829L56.7713 23.9863C56.6756 23.8895 56.567 23.8048 56.4477 23.7375L52.6789 21.557L50.7104 20.4184L45.0009 17.0998C44.8783 17.0296 44.7471 16.9797 44.613 16.9497L44.6211 16.9356C44.2957 16.8809 43.9159 16.908 43.5905 17.0993L32.1441 23.737C31.7096 23.9829 31.4115 24.4477 31.4115 24.9395V38.2431C31.4115 38.2721 31.4129 38.3012 31.4149 38.3298C31.4149 38.3331 31.4149 38.336 31.4158 38.3394C31.4307 38.5234 31.4879 38.6972 31.5778 38.8565C31.5778 38.8565 31.5778 38.857 31.5783 38.8574C31.5884 38.8754 31.599 38.8928 31.6096 38.9102C31.6572 38.9881 31.7115 39.0622 31.7716 39.131L31.7639 39.1445C31.8706 39.2752 31.9989 39.3866 32.1436 39.4723L43.6174 46.1105C43.9428 46.3017 44.3226 46.3564 44.675 46.247L44.6942 46.2121C44.699 46.2107 44.7043 46.2092 44.7091 46.2078L44.7024 46.2199C44.8105 46.1923 44.9192 46.1381 45.0278 46.0834L56.4747 39.4452L56.4742 39.4447ZM43.2371 14.6685L43.0747 14.7503H43.2915L43.2371 14.6685ZM57.5322 39.2263L57.451 39.0898V39.281L57.5322 39.2263Z" fill="#212429"/>
</svg>
