<svg width="120" height="63" viewBox="0 0 120 63" fill="none" xmlns="http://www.w3.org/2000/svg">
<path d="M88.8277 22.5493H84.1144L81.5337 35.7627H85.7229C85.9469 35.7787 86.211 35.7906 86.4751 35.7906C88.5036 35.7906 90.3881 35.1957 91.9725 34.1734L91.9325 34.1974C93.4169 32.8796 94.4252 31.0588 94.6852 29.0023L94.6892 28.9623C94.8813 28.4113 94.9933 27.7804 94.9933 27.1215C94.9933 25.9595 94.6452 24.8774 94.0491 23.9749L94.0611 23.9949C92.8728 23.0605 91.3564 22.4934 89.7039 22.4934C89.3958 22.4934 89.0878 22.5134 88.7877 22.5533L88.8277 22.5493ZM101.803 29.4455C101.503 31.0348 100.971 32.4524 100.243 33.7422L100.279 33.6743C99.5025 35.024 98.5703 36.182 97.486 37.1723L97.474 37.1803C96.2096 38.3862 94.6772 39.3286 92.9728 39.9036L92.8888 39.9276C91.1243 40.4507 89.0998 40.7541 86.9992 40.7541C86.8071 40.7541 86.6191 40.7501 86.431 40.7462H86.4591H80.5575L78.921 49.1398H72.0312L78.1808 17.5739H91.4244C91.7165 17.5459 92.0605 17.5299 92.4046 17.5299C95.4214 17.5299 98.1582 18.7439 100.143 20.7085C101.419 22.3457 102.191 24.4341 102.191 26.6982C102.191 27.6766 102.047 28.6229 101.779 29.5134L101.795 29.4455H101.803ZM63.821 40.7501L66.5377 26.7821C66.6778 26.4027 66.7578 25.9675 66.7578 25.5123C66.7578 24.7815 66.5497 24.0987 66.1897 23.5197L66.1976 23.5357C65.4174 22.9686 64.4412 22.6252 63.3849 22.6252C63.1648 22.6252 62.9488 22.6412 62.7367 22.6691L62.7607 22.6651H57.2993L53.7783 40.7541H46.9405L53.0902 9.18425H59.924L58.2875 17.5779H64.3772C64.7493 17.5379 65.1774 17.514 65.6135 17.514C68.1142 17.514 70.4348 18.2847 72.3473 19.6064L72.3073 19.5824C73.3356 20.7444 73.9637 22.2818 73.9637 23.9629C73.9637 24.7136 73.8397 25.4364 73.6076 26.1112L73.6196 26.0633L70.7589 40.7541L63.821 40.7501ZM43.6996 37.1803C42.4353 38.3902 40.9029 39.3286 39.1984 39.9036L39.1144 39.9276C37.35 40.4507 35.3254 40.7541 33.2289 40.7541C33.0408 40.7541 32.8488 40.7501 32.6607 40.7462H32.6887H26.7831L25.1467 49.1358H18.2569L24.4065 17.5699H37.658C37.9501 17.5419 38.2942 17.526 38.6383 17.526C41.6551 17.526 44.3918 18.7399 46.3764 20.7045C47.6527 22.3417 48.4209 24.4301 48.4209 26.6942C48.4209 27.6766 48.2769 28.6229 48.0088 29.5174L48.0248 29.4495C47.4406 32.5402 45.8922 35.2036 43.7077 37.1723L43.6957 37.1843L43.6996 37.1803ZM60 0C26.8672 0 0 14.0998 0 31.498C0 48.8962 26.8632 63 60 63C93.1368 63 120 48.8922 120 31.498C120 14.1038 93.1368 0 60 0ZM35.0493 22.5493H30.3281L27.7514 35.7627H31.9405C32.1646 35.7787 32.4246 35.7906 32.6887 35.7906C34.7173 35.7906 36.6058 35.1957 38.1902 34.1734L38.1502 34.1974C39.6346 32.8836 40.6388 31.0588 40.8949 29.0023L40.8989 28.9623C41.095 28.4113 41.207 27.7764 41.207 27.1175C41.207 25.9595 40.8629 24.8773 40.2667 23.9789L40.2787 23.9989C39.0904 23.0645 37.574 22.4974 35.9216 22.4974C35.6135 22.4974 35.3054 22.5174 35.0053 22.5573L35.0413 22.5533L35.0493 22.5493Z" fill="black"/>
</svg>
