<svg width="107" height="94" viewBox="0 0 107 94" fill="none" xmlns="http://www.w3.org/2000/svg">
<path d="M106.185 47.0108C106.185 40.0183 97.3761 33.3916 83.8703 29.2822C86.987 15.5985 85.6018 4.71183 79.4982 1.22637C78.0914 0.408789 76.4464 0.0215149 74.65 0.0215149V4.81941C75.6456 4.81941 76.4464 5.01305 77.1174 5.37881C80.061 7.05699 81.3379 13.447 80.3423 21.6658C80.1042 23.6883 79.7146 25.8183 79.2385 27.9913C74.9963 26.9586 70.3645 26.1625 65.4946 25.6461C62.5726 21.6658 59.5425 18.0513 56.4907 14.8885C63.5466 8.36942 70.1697 4.79789 74.6716 4.79789V0C68.7195 0 60.9277 4.21698 53.0493 11.5322C45.1709 4.26001 37.3791 0.0860612 31.427 0.0860612V4.88395C35.9073 4.88395 42.552 8.43397 49.6079 14.91C46.5778 18.0728 43.5476 21.6658 40.669 25.6461C35.7774 26.1625 31.1456 26.9586 26.9034 28.0128C26.4056 25.8613 26.0377 23.7743 25.7779 21.7734C24.7607 13.5546 26.016 7.16457 28.938 5.46487C29.5873 5.07759 30.4314 4.90547 31.427 4.90547V0.107576C29.6089 0.107576 27.964 0.49485 26.5355 1.31243C20.4535 4.79789 19.09 15.6631 22.2283 29.3037C8.7658 33.4347 0 40.0398 0 47.0108C0 54.0032 8.80908 60.6299 22.3149 64.7393C19.1982 78.423 20.5834 89.3097 26.687 92.7951C28.0938 93.6127 29.7388 94 31.5569 94C37.509 94 45.3008 89.783 53.1792 82.4678C61.0576 89.74 68.8494 93.9139 74.8015 93.9139C76.6196 93.9139 78.2645 93.5267 79.693 92.7091C85.775 89.2236 87.1385 78.3584 84.0001 64.7178C97.4194 60.6084 106.185 53.9817 106.185 47.0108ZM78.0048 32.6601C77.2039 35.4356 76.2083 38.2971 75.0828 41.1586C74.1954 39.4374 73.2648 37.7162 72.2475 35.995C71.2519 34.2737 70.1913 32.5956 69.1308 30.9604C72.2042 31.4122 75.1694 31.9716 78.0048 32.6601ZM68.0919 55.5738C66.4036 58.4784 64.6721 61.2323 62.8757 63.7926C59.6507 64.0723 56.3825 64.2229 53.0926 64.2229C49.8244 64.2229 46.5561 64.0723 43.3528 63.8141C41.5564 61.2538 39.8032 58.5214 38.115 55.6384C36.47 52.8199 34.9766 49.9583 33.613 47.0753C34.955 44.1923 36.4701 41.3092 38.0933 38.4907C39.7816 35.5862 41.5131 32.8322 43.3095 30.2719C46.5345 29.9922 49.8027 29.8416 53.0926 29.8416C56.3608 29.8416 59.6291 29.9922 62.8324 30.2504C64.6288 32.8107 66.382 35.5431 68.0702 38.4262C69.7152 41.2447 71.2086 44.1062 72.5721 46.9892C71.2086 49.8723 69.7151 52.7553 68.0919 55.5738ZM75.0828 52.7768C76.2516 55.6599 77.2472 58.5429 78.0697 61.3399C75.2344 62.0284 72.2475 62.6093 69.1524 63.0611C70.213 61.4044 71.2735 59.7047 72.2691 57.962C73.2648 56.2408 74.1954 54.4981 75.0828 52.7768ZM53.1359 75.7336C51.123 73.6681 49.1101 71.366 47.1189 68.8487C49.0668 68.9348 51.0581 68.9993 53.071 68.9993C55.1055 68.9993 57.1184 68.9563 59.088 68.8487C57.14 71.366 55.1271 73.6681 53.1359 75.7336ZM37.0328 63.0611C33.9593 62.6093 30.9941 62.0499 28.1588 61.3614C28.9596 58.5859 29.9552 55.7244 31.0807 52.8629C31.9681 54.5841 32.8988 56.3053 33.9161 58.0266C34.9333 59.7478 35.9722 61.426 37.0328 63.0611ZM53.0277 18.2879C55.0406 20.3534 57.0534 22.6555 59.0447 25.1728C57.0967 25.0867 55.1055 25.0222 53.0926 25.0222C51.0581 25.0222 49.0452 25.0652 47.0756 25.1728C49.0235 22.6555 51.0364 20.3534 53.0277 18.2879ZM37.0111 30.9604C35.9506 32.6171 34.89 34.3168 33.8944 36.0595C32.8988 37.7807 31.9681 39.5019 31.0807 41.2232C29.9119 38.3401 28.9163 35.4571 28.0938 32.6601C30.9292 31.9931 33.9161 31.4122 37.0111 30.9604ZM17.4234 57.8975C9.76142 54.6487 4.80496 50.3886 4.80496 47.0108C4.80496 43.6329 9.76142 39.3513 17.4234 36.1241C19.2848 35.328 21.3193 34.618 23.4187 33.951C24.6525 38.168 26.2758 42.5571 28.2886 47.0538C26.2974 51.529 24.6957 55.8965 23.4837 60.092C21.3409 59.425 19.3064 58.6935 17.4234 57.8975ZM29.0678 88.6427C26.1242 86.9645 24.8473 80.5745 25.8429 72.3557C26.081 70.3333 26.4705 68.2032 26.9467 66.0302C31.1889 67.0629 35.8207 67.859 40.6906 68.3754C43.6126 72.3557 46.6427 75.9702 49.6945 79.133C42.6386 85.6521 36.0155 89.2236 31.5136 89.2236C30.5396 89.2021 29.7171 89.0085 29.0678 88.6427ZM80.4073 72.2481C81.4245 80.4669 80.1692 86.8569 77.2472 88.5566C76.5979 88.9439 75.7538 89.116 74.7582 89.116C70.2779 89.116 63.6332 85.566 56.5773 79.09C59.6074 75.9272 62.6376 72.3342 65.5162 68.3539C70.4078 67.8375 75.0396 67.0414 79.2818 65.9872C79.7796 68.1602 80.1692 70.2472 80.4073 72.2481ZM88.7402 57.8975C86.8788 58.6935 84.8443 59.4035 82.7448 60.0705C81.5111 55.8535 79.8878 51.4644 77.8749 46.9677C79.8661 42.4926 81.4678 38.125 82.6799 33.9295C84.8226 34.5965 86.8571 35.328 88.7618 36.1241C96.4238 39.3729 101.38 43.6329 101.38 47.0108C101.359 50.3886 96.4021 54.6702 88.7402 57.8975Z" fill="#212429"/>
<path d="M53.0711 56.8432C58.5339 56.8432 62.9624 52.4411 62.9624 47.0108C62.9624 41.5804 58.5339 37.1783 53.0711 37.1783C47.6083 37.1783 43.1798 41.5804 43.1798 47.0108C43.1798 52.4411 47.6083 56.8432 53.0711 56.8432Z" fill="#212429"/>
</svg>
