<svg width="100" height="75" viewBox="0 0 100 75" fill="none" xmlns="http://www.w3.org/2000/svg">
<path d="M86.1078 43.1146C82.6191 43.1328 79.5871 43.9731 77.0482 45.2153C76.1167 43.3703 75.1851 41.7263 75.0207 40.5207C74.8381 39.1141 74.6189 38.2556 74.8381 36.575C75.0573 34.8945 76.0436 32.5015 76.0253 32.3189C76.0071 32.1362 75.8061 31.2777 73.797 31.2594C71.7878 31.2411 70.0526 31.643 69.8516 32.1727C69.6507 32.7025 69.2671 33.9081 69.0114 35.1502C68.6644 36.9769 64.993 43.4982 62.8925 46.9141C62.2167 45.5806 61.6322 44.4115 61.5043 43.4799C61.3217 42.0734 61.1025 41.2148 61.3217 39.5343C61.5409 37.8537 62.5272 35.4608 62.5089 35.2781C62.4907 35.0954 62.2898 34.2369 60.2806 34.2186C58.2714 34.2004 56.5362 34.6022 56.3352 35.132C56.1343 35.6617 55.9151 36.9038 55.495 38.1095C55.0749 39.3151 50.1981 50.2021 48.9195 53.0152C48.2619 54.4583 47.6957 55.6091 47.2939 56.3946C47.2939 56.3946 47.2756 56.4494 47.2208 56.5407C46.8738 57.2166 46.6729 57.5819 46.6729 57.5819C46.6729 57.5819 46.6729 57.5819 46.6729 57.6002C46.3989 58.0934 46.1066 58.55 45.9605 58.55C45.8509 58.55 45.65 57.2348 45.997 55.4447C46.7276 51.6634 48.4629 45.7815 48.4446 45.5806C48.4446 45.471 48.7734 44.448 47.3121 43.9183C45.8874 43.3886 45.376 44.2654 45.2482 44.2654C45.1203 44.2654 45.029 44.5759 45.029 44.5759C45.029 44.5759 46.6181 37.9633 41.9969 37.9633C39.111 37.9633 35.1291 41.1235 33.1565 43.9731C31.9144 44.649 29.2659 46.0921 26.4348 47.6447C25.3571 48.2475 24.243 48.8504 23.2018 49.4166C23.1288 49.3436 23.0557 49.2522 22.9826 49.1792C17.3934 43.2059 7.05523 38.9863 7.4936 30.9671C7.65799 28.0444 8.66258 20.3723 27.3481 11.0563C42.7275 3.47552 54.9653 5.57621 57.0841 10.2343C60.1162 16.8834 50.5269 29.2318 34.636 31.0219C28.5719 31.6978 25.3937 29.3596 24.59 28.4828C23.7498 27.5695 23.6219 27.5147 23.3114 27.6974C22.8 27.9714 23.1288 28.7934 23.3114 29.2683C23.7863 30.5104 25.7407 32.7025 29.0468 33.7802C31.9692 34.7301 39.0745 35.2598 47.6774 31.9353C57.3033 28.2088 64.8286 17.8515 62.6185 9.17477C60.4084 0.370155 45.7961 -2.53427 31.9692 2.37951C23.7498 5.3022 14.8363 9.90545 8.42513 15.897C0.808466 23.021 -0.397049 29.2135 0.096116 31.8074C1.86786 41.0139 14.5623 47.0054 19.6401 51.4442C19.3844 51.5904 19.1469 51.7183 18.946 51.8279C16.4071 53.0883 6.72645 58.1482 4.31542 63.5004C1.57561 69.565 4.75379 73.9125 6.85431 74.497C13.3751 76.3054 20.0784 73.0539 23.6767 67.6835C27.275 62.313 26.8366 55.3351 25.1745 52.1384C25.1562 52.1019 25.138 52.0653 25.1014 52.0288C25.759 51.6452 26.4348 51.2433 27.0924 50.8597C28.3892 50.0925 29.6678 49.3801 30.7637 48.7956C30.1427 50.4944 29.686 52.522 29.4669 55.4447C29.1929 58.8789 30.5993 63.336 32.4441 65.0896C33.2661 65.8568 34.2341 65.8751 34.8551 65.8751C37.0105 65.8751 37.9785 64.0849 39.0562 61.966C40.3713 59.3721 41.5585 56.358 41.5585 56.358C41.5585 56.358 40.079 64.505 44.0974 64.505C45.5587 64.505 47.0382 62.6053 47.6957 61.6371C47.6957 61.6554 47.6957 61.6554 47.6957 61.6554C47.6957 61.6554 47.7322 61.6006 47.8053 61.4727C47.9514 61.2353 48.0428 61.0891 48.0428 61.0891C48.0428 61.0891 48.0428 61.0709 48.0428 61.0526C48.6273 60.0297 49.9424 57.7098 51.8968 53.8555C54.4174 48.8869 56.8467 42.6762 56.8467 42.6762C56.8467 42.6762 57.0659 44.1923 57.8147 46.7131C58.2531 48.1928 59.1664 49.8185 59.897 51.3894C59.3125 52.2115 58.9472 52.6681 58.9472 52.6681C58.9472 52.6681 58.9472 52.6681 58.9655 52.6864C58.4906 53.3075 57.9791 53.9833 57.4129 54.6409C55.422 57.0156 53.0475 59.7374 52.7187 60.5229C52.3351 61.4545 52.4264 62.1304 53.1571 62.6784C53.6868 63.0802 54.6366 63.135 55.6046 63.0802C57.3946 62.9524 58.6549 62.514 59.276 62.24C60.244 61.8929 61.3765 61.3631 62.4359 60.5777C64.3903 59.1346 65.5775 57.0704 65.4679 54.3487C65.4131 52.8508 64.92 51.3529 64.3172 49.9464C64.4999 49.6906 64.6643 49.4349 64.8469 49.1792C67.9338 44.6673 70.3265 39.7169 70.3265 39.7169C70.3265 39.7169 70.5457 41.2331 71.2946 43.7539C71.6599 45.0326 72.4088 46.4209 73.0663 47.7726C70.1621 50.129 68.3721 52.8691 67.7328 54.6592C66.5821 57.9838 67.4771 59.4817 69.1758 59.8287C69.943 59.9931 71.0389 59.6278 71.8426 59.2807C72.8654 58.9519 74.0709 58.3856 75.2216 57.5454C77.176 56.1023 79.0574 54.0929 78.9478 51.3712C78.893 50.129 78.5642 48.9052 78.1076 47.7178C80.5734 46.6949 83.7516 46.1286 87.8065 46.6035C96.5008 47.6265 98.2178 53.0517 97.889 55.3351C97.5602 57.6184 95.7337 58.8606 95.1309 59.2442C94.5282 59.6278 94.3273 59.7557 94.382 60.0297C94.4551 60.4315 94.7474 60.4133 95.2588 60.3402C95.9711 60.2123 99.8251 58.4953 99.9895 54.2939C100.264 48.9234 95.1492 43.0598 86.1078 43.1146ZM19.0373 65.7289C16.1514 68.8708 12.133 70.0582 10.3978 69.0535C8.53473 67.9757 9.26534 63.336 12.8088 60.0114C14.9641 57.9838 17.7405 56.1023 19.5853 54.9515C20.0054 54.6957 20.6264 54.3304 21.3753 53.8737C21.5032 53.8007 21.5762 53.7641 21.5762 53.7641C21.7223 53.6728 21.8685 53.5815 22.0146 53.4901C23.3114 58.2395 22.0694 62.4226 19.0373 65.7289ZM40.0425 51.4442C39.0379 53.892 36.9374 60.1575 35.6588 59.8105C34.5629 59.5182 33.8871 54.7688 35.4396 50.0742C36.2251 47.7178 37.8872 44.9047 38.8553 43.8087C40.4261 42.0551 42.1613 41.4706 42.5814 42.183C43.1111 43.1146 40.6635 49.9098 40.0425 51.4442ZM57.3764 59.7374C56.9563 59.9566 56.5544 60.1027 56.3718 59.9931C56.2439 59.9201 56.5544 59.6278 56.5544 59.6278C56.5544 59.6278 58.728 57.2896 59.5865 56.2302C60.0797 55.6091 60.6641 54.8784 61.2852 54.0564C61.2852 54.1295 61.2852 54.2208 61.2852 54.2939C61.2852 57.0887 58.5819 58.9702 57.3764 59.7374ZM70.7466 56.6868C70.4361 56.4676 70.4909 55.737 71.532 53.4536C71.9339 52.5585 72.8837 51.0606 74.5093 49.6176C74.692 50.2021 74.8198 50.7684 74.8016 51.2981C74.7833 54.8236 72.2627 56.1388 70.7466 56.6868Z" fill="#212429"/>
</svg>
