<svg width="29" height="30" viewBox="0 0 29 30" fill="none" xmlns="http://www.w3.org/2000/svg">
<g clip-path="url(#clip0_39_181)">
<path d="M29 11.9266L28.0036 8.80207L18.7211 11.8755L24.4585 3.83007L21.8492 1.89939L16.1125 9.94401V0H12.8875V9.94401L7.15081 1.89939L4.54229 3.83007L10.2789 11.8755L0.996378 8.80207L0 11.9266L9.28255 15L0 18.0726L0.996378 21.1971L10.2789 18.1245L4.54229 26.1691L7.15081 28.1006L12.8875 20.0552V30H16.1125V20.0552L21.8492 28.1006L24.4585 26.1691L18.7211 18.1245L28.0036 21.1971L29 18.0726L19.7174 15L29 11.9266Z" fill="#F7CB44"/>
</g>
<defs>
<clipPath id="clip0_39_181">
<rect width="29" height="30" fill="white"/>
</clipPath>
</defs>
</svg>
